HIERARCHY
ROOT Hips
{
	OFFSET 0.000000 0.000000 0.000000
	CHANNELS 6 Xposition Yposition Zposition Zrotation Yrotation Xrotation 
	JOINT LHipJoint
	{
		OFFSET 0.000000 0.000000 0.000000
		CHANNELS 3 Zrotation Yrotation Xrotation
		JOINT LeftUpLeg
		{
			OFFSET 1.363060 -1.794630 0.839290
			CHANNELS 3 Zrotation Yrotation Xrotation
			JOINT LeftLeg
			{
				OFFSET 2.448110 -6.726130 0.000000
				CHANNELS 3 Zrotation Yrotation Xrotation
				JOINT LeftFoot
				{
					OFFSET 2.562200 -7.039590 0.000000
					CHANNELS 3 Zrotation Yrotation Xrotation
					JOINT LeftToeBase
					{
						OFFSET 0.157640 -0.433110 2.322550
						CHANNELS 3 Zrotation Yrotation Xrotation
						End Site
						{
							OFFSET 0.000000 0.000000 0.000000
						}
					}
				}
			}
		}
	}
	JOINT RHipJoint
	{
		OFFSET 0.000000 0.000000 0.000000
		CHANNELS 3 Zrotation Yrotation Xrotation
		JOINT RightUpLeg
		{
			OFFSET -1.305520 -1.794630 0.839290
			CHANNELS 3 Zrotation Yrotation Xrotation
			JOINT RightLeg
			{
				OFFSET -2.542530 -6.985550 0.000000
				CHANNELS 3 Zrotation Yrotation Xrotation
				JOINT RightFoot
				{
					OFFSET -2.568260 -7.056230 0.000000
					CHANNELS 3 Zrotation Yrotation Xrotation
					JOINT RightToeBase
					{
						OFFSET -0.164730 -0.452590 2.363150
						CHANNELS 3 Zrotation Yrotation Xrotation
						End Site
						{
							OFFSET 0.000000 0.000000 0.000000
						}
					}
				}
			}
		}
	}
	JOINT LowerBack
	{
		OFFSET 0.000000 0.000000 0.000000
		CHANNELS 3 Zrotation Yrotation Xrotation
		JOINT Spine
		{
			OFFSET 0.028270 2.035590 -0.193380
			CHANNELS 3 Zrotation Yrotation Xrotation
			JOINT Spine1
			{
				OFFSET 0.056720 2.048850 -0.042750
				CHANNELS 3 Zrotation Yrotation Xrotation
				JOINT Neck
				{
					OFFSET 0.000000 0.000000 0.000000
					CHANNELS 3 Zrotation Yrotation Xrotation
					JOINT Neck1
					{
						OFFSET -0.054170 1.746240 0.172020
						CHANNELS 3 Zrotation Yrotation Xrotation
						JOINT Head
						{
							OFFSET 0.104070 1.761360 -0.123970
							CHANNELS 3 Zrotation Yrotation Xrotation
							End Site
							{
								OFFSET 0.000000 0.000000 0.000000
							}
						}
					}
				}
				JOINT LeftShoulder
				{
					OFFSET 0.000000 0.000000 0.000000
					CHANNELS 3 Zrotation Yrotation Xrotation
					JOINT LeftArm
					{
						OFFSET 3.362410 1.200890 -0.311210
						CHANNELS 3 Zrotation Yrotation Xrotation
						JOINT LeftForeArm
						{
							OFFSET 4.983000 -0.000000 -0.000000
							CHANNELS 3 Zrotation Yrotation Xrotation
							JOINT LeftHand
							{
								OFFSET 3.483560 -0.000000 -0.000000
								CHANNELS 3 Zrotation Yrotation Xrotation
								JOINT LeftFingerBase
								{
									OFFSET 0.000000 0.000000 0.000000
									CHANNELS 3 Zrotation Yrotation Xrotation
									JOINT LeftHandIndex1
									{
										OFFSET 0.715260 -0.000000 -0.000000
										CHANNELS 3 Zrotation Yrotation Xrotation
										End Site
										{
											OFFSET 0.000000 0.000000 0.000000
										}
									}
								}
								JOINT LThumb
								{
									OFFSET 0.000000 0.000000 0.000000
									CHANNELS 3 Zrotation Yrotation Xrotation
									End Site
									{
										OFFSET 0.000000 0.000000 0.000000
									}
								}
							}
						}
					}
				}
				JOINT RightShoulder
				{
					OFFSET 0.000000 0.000000 0.000000
					CHANNELS 3 Zrotation Yrotation Xrotation
					JOINT RightArm
					{
						OFFSET -3.136600 1.374050 -0.404650
						CHANNELS 3 Zrotation Yrotation Xrotation
						JOINT RightForeArm
						{
							OFFSET -5.241900 -0.000000 -0.000000
							CHANNELS 3 Zrotation Yrotation Xrotation
							JOINT RightHand
							{
								OFFSET -3.444170 -0.000000 -0.000000
								CHANNELS 3 Zrotation Yrotation Xrotation
								JOINT RightFingerBase
								{
									OFFSET 0.000000 0.000000 0.000000
									CHANNELS 3 Zrotation Yrotation Xrotation
									JOINT RightHandIndex1
									{
										OFFSET -0.622530 -0.000000 -0.000000
										CHANNELS 3 Zrotation Yrotation Xrotation
										End Site
										{
											OFFSET 0.000000 0.000000 0.000000
										}
									}
								}
								JOINT RThumb
								{
									OFFSET 0.000000 0.000000 0.000000
									CHANNELS 3 Zrotation Yrotation Xrotation
									End Site
									{
										OFFSET 0.000000 0.000000 0.000000
									}
								}
							}
						}
					}
				}
			}
		}
	}
}
MOTION
Frames: 9
Frame Time: 0.008333
-12.080211 16.992518 0.121793 123.568589 87.176934 145.563843 -12.083446 4.452843 1.816789 -3.868599 6.772458 -4.385181 -1.518933 0.400216 15.357181 -0.256238 -8.553779 12.191909 -2.349600 -0.000000 -81.387100 8.455265 -1.590456 3.768332 10.139642 -0.393052 -45.952949 3.470401 -1.254049 22.021213 0.955119 5.933566 -0.146249 0.519800 0.000000 -40.055000 5.625735 -2.952167 -6.014367 0.545238 -3.611082 -3.983955 -7.027176 -3.587644 0.169468 6.702733 -9.925641 -7.163181 -4.110649 -0.312219 0.105178 0.000000 0.000000 0.000000 1.119938 6.757963 0.465935 -55.382724 -21.747311 12.788483 -179.059633 -77.653951 179.931454 8.298808 -3.405765 -0.302227 -0.312590 0.676032 0.000000 0.000000 0.000000 0.000000 0.000000 0.000000 0.000000 11.406511 -6.712090 0.426427 69.187515 1.867193 -10.630313 0.418822 73.444576 -0.043959 -10.972546 10.405287 -1.047916 0.121335 -0.366498 0.000000 0.000000 0.000000 0.000000 0.000000 0.000000 0.000000 
-11.906958 16.959606 0.150580 122.172850 86.982844 144.088937 -12.143977 4.489576 1.847654 -3.677928 6.568907 -4.504707 -1.413001 0.488476 16.771624 -0.228359 -9.051330 12.742864 -2.588700 0.000001 -81.703400 8.430672 -1.570572 3.688185 9.925479 -0.254421 -46.301513 3.296092 -1.482787 24.540181 0.802732 5.540147 -1.906920 0.371600 -0.000000 -36.434000 5.719710 -2.945529 -5.979554 0.569074 -3.608770 -3.976384 -6.980148 -3.585275 0.163421 6.470256 -9.784068 -7.197826 -4.190367 -0.317478 0.090078 0.000000 0.000000 0.000000 1.099164 6.844847 0.423642 -55.627817 -21.890932 12.634701 -179.007699 -76.963352 179.929808 8.417473 -3.665138 -0.327627 -0.318695 0.691735 0.000000 0.000000 0.000000 0.000000 0.000000 0.000000 0.000000 11.560414 -6.627390 0.503237 68.949622 1.920637 -10.850447 0.445969 72.133857 -0.047328 -12.072632 10.266486 -1.137738 0.131477 -0.356900 0.000000 0.000000 0.000000 0.000000 0.000000 0.000000 0.000000 
-11.737728 16.933964 0.176053 123.151967 86.805329 144.954931 -12.176630 4.507358 1.877664 -3.426596 6.287783 -4.697249 -1.284943 0.581134 18.317235 -0.189463 -9.496447 13.400833 -2.844300 -0.000000 -81.716000 8.433277 -1.548391 3.566765 9.795000 -0.220885 -46.472870 3.136923 -1.701204 26.985922 0.647906 5.164452 -3.662812 0.250800 0.000000 -33.508400 5.889707 -2.946780 -5.902123 0.609461 -3.618985 -3.961209 -6.925509 -3.595155 0.155314 6.241685 -9.638951 -7.212939 -4.268630 -0.322731 0.079993 0.000000 0.000000 0.000000 1.088014 6.922272 0.376565 -56.050593 -22.017397 12.506996 -178.967538 -76.416944 179.927897 8.557029 -3.872819 -0.350329 -0.324724 0.705420 0.000000 0.000000 0.000000 0.000000 0.000000 0.000000 0.000000 11.708539 -6.556424 0.571935 68.691488 2.042904 -11.025803 0.467396 70.824338 -0.050993 -13.245593 10.016187 -1.218172 0.141673 -0.346808 0.000000 0.000000 0.000000 0.000000 0.000000 0.000000 0.000000 
-11.572371 16.916524 0.197872 126.491430 86.654378 148.159378 -12.176237 4.504212 1.902535 -3.099375 5.949530 -4.980659 -1.136078 0.675932 19.983453 -0.138350 -9.876239 14.172335 -3.115500 -0.000000 -81.336900 8.465426 -1.533212 3.420568 9.770098 -0.269191 -46.421553 3.006405 -1.890248 29.135956 0.499865 4.805210 -5.271016 0.159400 -0.000000 -31.543199 6.162444 -2.951823 -5.795651 0.671541 -3.640527 -3.941288 -6.864481 -3.615975 0.146181 6.014212 -9.497639 -7.209169 -4.343851 -0.327876 0.074995 0.000000 0.000000 0.000000 1.075973 6.988754 0.325758 -56.640446 -22.120395 12.416136 -178.938689 -76.010503 179.925841 8.706790 -4.030147 -0.369831 -0.330466 0.716943 0.000000 0.000000 0.000000 0.000000 0.000000 0.000000 0.000000 11.839302 -6.503261 0.631822 68.428200 2.221528 -11.168689 0.482019 69.552267 -0.054872 -14.455389 9.637464 -1.280218 0.151690 -0.336413 0.000000 0.000000 0.000000 0.000000 0.000000 0.000000 0.000000 
-11.410535 16.907857 0.216093 131.843296 86.535294 153.366856 -12.136795 4.487886 1.921862 -2.698753 5.571265 -5.366462 -0.973063 0.772779 21.747915 -0.073650 -10.165166 15.047959 -3.394000 0.000000 -80.468000 8.531327 -1.521617 3.260504 9.862827 -0.379690 -46.132487 2.911894 -2.036383 30.847660 0.366701 4.470076 -6.645033 0.095299 0.000000 -30.620400 6.549997 -2.950507 -5.672707 0.756455 -3.664856 -3.919263 -6.799644 -3.639051 0.136746 5.786987 -9.366737 -7.188581 -4.414677 -0.332809 0.074732 0.000000 0.000000 0.000000 1.054216 7.046232 0.271534 -57.374382 -22.191737 12.368513 -178.920418 -75.734767 179.923830 8.852924 -4.141603 -0.385735 -0.335566 0.726216 -0.000000 0.000000 0.000000 0.000000 0.000000 0.000000 0.000000 11.945086 -6.466603 0.682838 68.177056 2.440950 -11.294116 0.489615 68.356133 -0.058872 -15.658829 9.122615 -1.314372 0.161350 -0.325976 0.000000 0.000000 0.000000 0.000000 0.000000 0.000000 0.000000 
-11.251807 16.907945 0.231204 138.503702 86.449619 159.886189 -12.061855 4.473867 1.939165 -2.246339 5.168612 -5.861300 -0.807604 0.874200 23.581008 0.005527 -10.332367 15.998778 -3.662700 0.000000 -79.013900 8.628655 -1.499553 3.092200 10.067357 -0.534092 -45.615196 2.853078 -2.128434 32.053258 0.253600 4.167782 -7.745810 0.053300 -0.000000 -30.652800 7.037419 -2.929106 -5.543928 0.859429 -3.677431 -3.897107 -6.733875 -3.649848 0.127841 5.560924 -9.252121 -7.154612 -4.479822 -0.337418 0.078436 0.000000 0.000000 0.000000 1.017813 7.100122 0.213293 -58.218288 -22.223005 12.366868 -178.911706 -75.574288 179.922054 8.980081 -4.213122 -0.397746 -0.339576 0.733197 -0.000000 0.000000 0.000000 0.000000 0.000000 0.000000 0.000000 12.021554 -6.440968 0.725299 67.957089 2.683737 -11.417562 0.490883 67.273039 -0.062892 -16.809271 8.477392 -1.313730 0.170517 -0.315804 0.000000 0.000000 0.000000 0.000000 0.000000 0.000000 0.000000 
-11.095670 16.916360 0.243869 145.603836 86.395879 166.856357 -11.973662 4.475556 1.958389 -1.771583 4.762561 -6.462236 -0.652030 0.983293 25.451707 0.098736 -10.354921 16.980944 -3.900600 -0.000000 -76.932800 8.738740 -1.455616 2.917369 10.362081 -0.715568 -44.887148 2.824560 -2.157689 32.740499 0.161341 3.898678 -8.571966 0.027400 0.000000 -31.413400 7.582068 -2.877266 -5.414283 0.970781 -3.664414 -3.875233 -6.669054 -3.634812 0.120648 5.336555 -9.160919 -7.111848 -4.537862 -0.341559 0.084925 0.000000 0.000000 0.000000 0.962527 7.155844 0.150838 -59.130360 -22.207314 12.409384 -178.911481 -75.513232 179.920721 9.072530 -4.251512 -0.405271 -0.342038 0.737871 -0.000000 0.000000 0.000000 0.000000 0.000000 0.000000 0.000000 12.064807 -6.422924 0.759454 67.788558 2.936977 -11.552827 0.487138 66.331708 -0.066831 -17.861254 7.723332 -1.275289 0.179060 -0.306233 0.000000 0.000000 0.000000 0.000000 0.000000 0.000000 0.000000 
-10.941649 16.932243 0.255121 152.158649 86.348547 173.295645 -11.905887 4.491874 1.983898 -1.318855 4.361005 -7.156814 -0.512885 1.098514 27.333153 0.202621 -10.213122 17.937912 -4.080400 0.000000 -74.222100 8.830604 -1.395132 2.739388 10.700095 -0.922297 -43.981958 2.819325 -2.124179 32.941255 0.087146 3.655184 -9.148336 0.012500 0.000000 -32.622699 8.108978 -2.799531 -5.289105 1.076246 -3.624084 -3.853733 -6.606100 -3.592816 0.116101 5.116803 -9.095905 -7.063401 -4.588318 -0.345194 0.093395 0.000000 0.000000 0.000000 0.891601 7.212712 0.085597 -60.065589 -22.139565 12.492953 -178.917642 -75.532243 179.919996 9.116077 -4.263353 -0.408417 -0.342646 0.740354 -0.000000 0.000000 0.000000 0.000000 0.000000 0.000000 0.000000 12.077961 -6.411462 0.784270 67.688937 3.182926 -11.713116 0.479389 65.558051 -0.070585 -18.776274 6.894260 -1.201245 0.186784 -0.297525 0.000000 0.000000 0.000000 0.000000 0.000000 0.000000 0.000000 
-10.789205 16.954563 0.265891 157.574659 86.272969 178.609535 -11.877139 4.507852 2.015146 -0.917496 3.968911 -7.926430 -0.389407 1.213520 29.207450 0.311201 -9.902949 18.809844 -4.177800 -0.000000 -70.988899 8.883757 -1.337716 2.566557 11.038072 -1.154243 -42.934159 2.832325 -2.037639 32.705668 0.024590 3.414859 -9.513380 0.004301 0.000000 -33.988500 8.564575 -2.711187 -5.174220 1.166867 -3.567439 -3.832850 -6.546029 -3.535204 0.115282 4.903536 -9.059378 -7.011937 -4.631041 -0.348323 0.103159 0.000000 0.000000 0.000000 0.807309 7.265474 0.021551 -60.979242 -22.018113 12.612827 -178.927948 -75.618398 179.920048 9.099045 -4.254568 -0.406885 -0.341286 0.740820 -0.000000 0.000000 0.000000 0.000000 0.000000 0.000000 0.000000 12.064149 -6.411843 0.797812 67.670562 3.408535 -11.906868 0.468411 64.966969 -0.074053 -19.525232 6.035752 -1.099097 0.193466 -0.289916 0.000000 0.000000 0.000000 0.000000 0.000000 0.000000 0.000000 
